HIERARCHY
ROOT Hips
{
	OFFSET 0.000000 87.230942 0.000000
	CHANNELS 6 Xposition Yposition Zposition Xrotation Yrotation Zrotation
	JOINT Pelvis
	{
		OFFSET 0.000000 0.000000 0.000000
		CHANNELS 3 Xrotation Yrotation Zrotation
		JOINT LeftUpLeg
		{
			OFFSET 12.017000 -9.376404 -2.439400
			CHANNELS 3 Xrotation Yrotation Zrotation
			JOINT LeftLeg
			{
				OFFSET -0.007312 -32.846973 2.110600
				CHANNELS 3 Xrotation Yrotation Zrotation
				JOINT LeftFoot
				{
					OFFSET 0.007312 -32.065170 -0.570400
					CHANNELS 3 Xrotation Yrotation Zrotation
					JOINT LeftToeBase
					{
						OFFSET 0.728300 -11.045900 13.180700
						CHANNELS 3 Xrotation Yrotation Zrotation
						End Site
						{
							OFFSET 0.000000 17.212589 0.000000
						}
					}
				}
				JOINT LeftPantLeg
				{
					OFFSET 0.002788 -16.709013 -3.143600
					CHANNELS 3 Xrotation Yrotation Zrotation
					End Site
					{
						OFFSET -0.605125 24.528742 0.000000
					}
				}
			}
			JOINT Left_Butt
			{
				OFFSET -6.630234 1.326584 -3.183700
				CHANNELS 3 Xrotation Yrotation Zrotation
				End Site
				{
					OFFSET -0.498041 20.188049 0.000000
				}
			}
		}
		JOINT RightUpLeg
		{
			OFFSET -11.717000 -9.376404 -2.439400
			CHANNELS 3 Xrotation Yrotation Zrotation
			JOINT RightLeg
			{
				OFFSET -0.003241 -32.846912 2.110600
				CHANNELS 3 Xrotation Yrotation Zrotation
				JOINT RightFoot
				{
					OFFSET 0.003241 -32.065136 -0.570500
					CHANNELS 3 Xrotation Yrotation Zrotation
					JOINT RightToeBase
					{
						OFFSET -0.728300 -11.045901 13.180700
						CHANNELS 3 Xrotation Yrotation Zrotation
						End Site
						{
							OFFSET 0.000000 17.212593 0.000000
						}
					}
				}
				JOINT RightPantLeg
				{
					OFFSET 0.008142 -16.708982 -3.143700
					CHANNELS 3 Xrotation Yrotation Zrotation
					End Site
					{
						OFFSET 0.605088 24.528715 0.000000
					}
				}
			}
			JOINT Right_Butt
			{
				OFFSET 6.630732 1.326584 -3.183700
				CHANNELS 3 Xrotation Yrotation Zrotation
				End Site
				{
					OFFSET 0.498015 20.188240 0.000000
				}
			}
		}
	}
	JOINT Spine
	{
		OFFSET -0.062400 7.848404 3.918300
		CHANNELS 3 Xrotation Yrotation Zrotation
		JOINT Spine1
		{
			OFFSET -0.072800 11.422302 0.713400
			CHANNELS 3 Xrotation Yrotation Zrotation
			JOINT Spine2
			{
				OFFSET -0.083200 13.054001 -1.931600
				CHANNELS 3 Xrotation Yrotation Zrotation
				JOINT Neck
				{
					OFFSET -0.092200 14.121796 -5.138800
					CHANNELS 3 Xrotation Yrotation Zrotation
					JOINT Head
					{
						OFFSET 0.000200 10.447403 -0.842000
						CHANNELS 3 Xrotation Yrotation Zrotation
						JOINT Visor
						{
							OFFSET 0.457100 25.671204 16.550400
							CHANNELS 3 Xrotation Yrotation Zrotation
							End Site
							{
								OFFSET 0.000000 26.061493 0.000000
							}
						}
						JOINT HairMidA
						{
							OFFSET 0.459400 31.585403 8.437400
							CHANNELS 3 Xrotation Yrotation Zrotation
							End Site
							{
								OFFSET 0.000000 26.061493 0.000000
							}
						}
						JOINT HairMidB
						{
							OFFSET 0.464000 33.309204 -8.389700
							CHANNELS 3 Xrotation Yrotation Zrotation
							End Site
							{
								OFFSET 0.000000 26.061493 0.000000
							}
						}
						JOINT HairMidC
						{
							OFFSET 0.466600 27.991196 -17.375099
							CHANNELS 3 Xrotation Yrotation Zrotation
							End Site
							{
								OFFSET 0.000000 26.061493 0.000000
							}
						}
						JOINT HairMidD
						{
							OFFSET 0.467700 17.888092 -21.169500
							CHANNELS 3 Xrotation Yrotation Zrotation
							End Site
							{
								OFFSET 0.000000 26.061493 0.000000
							}
						}
						JOINT HairMidE
						{
							OFFSET 5.325700 3.514603 -14.369699
							CHANNELS 3 Xrotation Yrotation Zrotation
							End Site
							{
								OFFSET 0.000000 26.061493 0.000000
							}
						}
						JOINT HairMidF
						{
							OFFSET -4.394100 3.514603 -14.372400
							CHANNELS 3 Xrotation Yrotation Zrotation
							End Site
							{
								OFFSET 0.000000 26.061493 0.000000
							}
						}
						JOINT HairLeftA
						{
							OFFSET 15.319900 25.746506 2.623300
							CHANNELS 3 Xrotation Yrotation Zrotation
							End Site
							{
								OFFSET 0.000000 26.061493 0.000000
							}
						}
						JOINT HairLeftB
						{
							OFFSET 12.619500 29.289398 -8.731499
							CHANNELS 3 Xrotation Yrotation Zrotation
							End Site
							{
								OFFSET 0.000000 26.061493 0.000000
							}
						}
						JOINT HairLeftC
						{
							OFFSET 15.714800 15.959900 2.909800
							CHANNELS 3 Xrotation Yrotation Zrotation
							End Site
							{
								OFFSET 0.000000 26.061493 0.000000
							}
						}
						JOINT HairLeftD
						{
							OFFSET 16.101700 18.437408 -7.553200
							CHANNELS 3 Xrotation Yrotation Zrotation
							End Site
							{
								OFFSET 0.000000 26.061493 0.000000
							}
						}
						JOINT HairLeftE
						{
							OFFSET 9.731900 17.915009 -18.316799
							CHANNELS 3 Xrotation Yrotation Zrotation
							End Site
							{
								OFFSET 0.000000 26.061493 0.000000
							}
						}
						JOINT HairLeftF
						{
							OFFSET 11.204300 4.953598 -9.668100
							CHANNELS 3 Xrotation Yrotation Zrotation
							End Site
							{
								OFFSET 0.000000 26.061493 0.000000
							}
						}
						JOINT HairRightA
						{
							OFFSET -14.397900 25.746307 2.615100
							CHANNELS 3 Xrotation Yrotation Zrotation
							End Site
							{
								OFFSET 0.000000 26.061493 0.000000
							}
						}
						JOINT HairRightB
						{
							OFFSET -11.691200 29.289200 -8.738199
							CHANNELS 3 Xrotation Yrotation Zrotation
							End Site
							{
								OFFSET 0.000000 26.061493 0.000000
							}
						}
						JOINT HairRightC
						{
							OFFSET -14.792900 15.959702 2.901400
							CHANNELS 3 Xrotation Yrotation Zrotation
							End Site
							{
								OFFSET 0.000000 26.061493 0.000000
							}
						}
						JOINT HairRightD
						{
							OFFSET -15.174000 18.437195 -7.561900
							CHANNELS 3 Xrotation Yrotation Zrotation
							End Site
							{
								OFFSET 0.000000 26.061493 0.000000
							}
						}
						JOINT HairRightE
						{
							OFFSET -8.798200 17.914902 -18.322001
							CHANNELS 3 Xrotation Yrotation Zrotation
							End Site
							{
								OFFSET 0.000000 26.061493 0.000000
							}
						}
						JOINT HairRightF
						{
							OFFSET -10.275200 4.953506 -9.674099
							CHANNELS 3 Xrotation Yrotation Zrotation
							End Site
							{
								OFFSET 0.000000 26.061493 0.000000
							}
						}
					}
				}
				JOINT LeftShoulder
				{
					OFFSET 5.133500 7.341202 -1.867600
					CHANNELS 3 Xrotation Yrotation Zrotation
					JOINT LeftArm
					{
						OFFSET 8.072663 0.936867 -2.176600
						CHANNELS 3 Xrotation Yrotation Zrotation
						JOINT LeftForeArm
						{
							OFFSET 31.271999 0.000000 0.000000
							CHANNELS 3 Xrotation Yrotation Zrotation
							JOINT LeftHand
							{
								OFFSET 31.771030 0.000000 0.000000
								CHANNELS 3 Xrotation Yrotation Zrotation
								JOINT LeftHandThumb1
								{
									OFFSET 2.886520 -2.557846 4.416640
									CHANNELS 3 Xrotation Yrotation Zrotation
									JOINT LeftHandThumb2
									{
										OFFSET 2.371025 -1.368912 1.368911
										CHANNELS 3 Xrotation Yrotation Zrotation
										JOINT LeftHandThumb3
										{
											OFFSET 2.243378 -1.295212 1.295213
											CHANNELS 3 Xrotation Yrotation Zrotation
											End Site
											{
												OFFSET -0.332611 2.876945 0.020015
											}
										}
									}
								}
								JOINT LeftHandIndex1
								{
									OFFSET 8.568985 -0.641945 3.119977
									CHANNELS 3 Xrotation Yrotation Zrotation
									JOINT LeftHandIndex2
									{
										OFFSET 3.348503 0.000000 0.000000
										CHANNELS 3 Xrotation Yrotation Zrotation
										JOINT LeftHandIndex3
										{
											OFFSET 3.314552 0.000000 0.000000
											CHANNELS 3 Xrotation Yrotation Zrotation
											End Site
											{
												OFFSET -1.032898 3.075485 0.678796
											}
										}
									}
								}
								JOINT LeftHandMiddle1
								{
									OFFSET 8.124603 0.000000 0.000000
									CHANNELS 3 Xrotation Yrotation Zrotation
									JOINT LeftHandMiddle2
									{
										OFFSET 4.166275 0.000000 0.000000
										CHANNELS 3 Xrotation Yrotation Zrotation
										JOINT LeftHandMiddle3
										{
											OFFSET 3.018135 0.000000 0.000000
											CHANNELS 3 Xrotation Yrotation Zrotation
											End Site
											{
												OFFSET -1.032700 2.767982 0.617226
											}
										}
									}
								}
								JOINT LeftHandRing1
								{
									OFFSET 8.571686 -0.031357 -2.884048
									CHANNELS 3 Xrotation Yrotation Zrotation
									JOINT LeftHandRing2
									{
										OFFSET 3.671181 0.000000 0.000000
										CHANNELS 3 Xrotation Yrotation Zrotation
										JOINT LeftHandRing3
										{
											OFFSET 2.728851 0.000000 0.000000
											CHANNELS 3 Xrotation Yrotation Zrotation
											End Site
											{
												OFFSET -0.815796 2.539223 0.577389
											}
										}
									}
								}
								JOINT LeftHandPinky1
								{
									OFFSET 7.854515 -0.675232 -5.213020
									CHANNELS 3 Xrotation Yrotation Zrotation
									JOINT LeftHandPinky2
									{
										OFFSET 3.068596 0.000000 0.000000
										CHANNELS 3 Xrotation Yrotation Zrotation
										JOINT LeftHandPinky3
										{
											OFFSET 2.396042 0.000000 0.000000
											CHANNELS 3 Xrotation Yrotation Zrotation
											End Site
											{
												OFFSET -0.524597 2.267998 0.567429
											}
										}
									}
								}
							}
							JOINT LeftSleeve
							{
								OFFSET 19.684509 -0.200119 0.476146
								CHANNELS 3 Xrotation Yrotation Zrotation
								End Site
								{
									OFFSET -0.031017 25.731133 -0.002868
								}
							}
						}
					}
				}
				JOINT RightShoulder
				{
					OFFSET -4.395900 7.341202 -1.870200
					CHANNELS 3 Xrotation Yrotation Zrotation
					JOINT RightArm
					{
						OFFSET -8.071453 0.936867 -2.181100
						CHANNELS 3 Xrotation Yrotation Zrotation
						JOINT RightForeArm
						{
							OFFSET -31.272011 0.000000 0.000000
							CHANNELS 3 Xrotation Yrotation Zrotation
							JOINT RightHand
							{
								OFFSET -31.771019 0.000000 0.000000
								CHANNELS 3 Xrotation Yrotation Zrotation
								JOINT RightHandThumb1
								{
									OFFSET -2.886520 -2.557808 4.416626
									CHANNELS 3 Xrotation Yrotation Zrotation
									JOINT RightHandThumb2
									{
										OFFSET -2.371056 -1.368927 1.368928
										CHANNELS 3 Xrotation Yrotation Zrotation
										JOINT RightHandThumb3
										{
											OFFSET -2.243362 -1.295204 1.295206
											CHANNELS 3 Xrotation Yrotation Zrotation
											End Site
											{
												OFFSET 0.332642 2.876938 0.020047
											}
										}
									}
								}
								JOINT RightHandIndex1
								{
									OFFSET -8.568993 -0.641953 3.120017
									CHANNELS 3 Xrotation Yrotation Zrotation
									JOINT RightHandIndex2
									{
										OFFSET -3.348518 0.000000 0.000000
										CHANNELS 3 Xrotation Yrotation Zrotation
										JOINT RightHandIndex3
										{
											OFFSET -3.314552 0.000000 0.000000
											CHANNELS 3 Xrotation Yrotation Zrotation
											End Site
											{
												OFFSET 1.032898 3.075478 0.678804
											}
										}
									}
								}
								JOINT RightHandMiddle1
								{
									OFFSET -8.124588 0.000000 0.000000
									CHANNELS 3 Xrotation Yrotation Zrotation
									JOINT RightHandMiddle2
									{
										OFFSET -4.166275 0.000000 0.000000
										CHANNELS 3 Xrotation Yrotation Zrotation
										JOINT RightHandMiddle3
										{
											OFFSET -3.018097 0.000000 0.000000
											CHANNELS 3 Xrotation Yrotation Zrotation
											End Site
											{
												OFFSET 1.032700 2.767937 0.617197
											}
										}
									}
								}
								JOINT RightHandRing1
								{
									OFFSET -8.571747 -0.031349 -2.884061
									CHANNELS 3 Xrotation Yrotation Zrotation
									JOINT RightHandRing2
									{
										OFFSET -3.671204 0.000000 0.000000
										CHANNELS 3 Xrotation Yrotation Zrotation
										JOINT RightHandRing3
										{
											OFFSET -2.728874 0.000000 0.000000
											CHANNELS 3 Xrotation Yrotation Zrotation
											End Site
											{
												OFFSET 0.815804 2.539261 0.577413
											}
										}
									}
								}
								JOINT RightHandPinky1
								{
									OFFSET -7.854561 -0.675247 -5.212970
									CHANNELS 3 Xrotation Yrotation Zrotation
									JOINT RightHandPinky2
									{
										OFFSET -3.068550 0.000000 0.000000
										CHANNELS 3 Xrotation Yrotation Zrotation
										JOINT RightHandPinky3
										{
											OFFSET -2.395981 0.000000 0.000000
											CHANNELS 3 Xrotation Yrotation Zrotation
											End Site
											{
												OFFSET 0.524605 2.267952 0.567413
											}
										}
									}
								}
							}
							JOINT RightSleeve
							{
								OFFSET -19.684753 -0.200165 0.476065
								CHANNELS 3 Xrotation Yrotation Zrotation
								End Site
								{
									OFFSET 0.031342 25.731255 -0.002917
								}
							}
						}
					}
				}
				JOINT Hood
				{
					OFFSET 0.369700 14.447800 -5.317800
					CHANNELS 3 Xrotation Yrotation Zrotation
					JOINT Hood1
					{
						OFFSET 0.001700 -5.553802 -5.895100
						CHANNELS 3 Xrotation Yrotation Zrotation
						JOINT Hood2
						{
							OFFSET -0.000200 -8.380501 0.763600
							CHANNELS 3 Xrotation Yrotation Zrotation
							End Site
							{
								OFFSET 0.000000 8.415215 0.000000
							}
						}
					}
				}
				JOINT Left_Breast
				{
					OFFSET 5.682500 3.120102 3.188800
					CHANNELS 3 Xrotation Yrotation Zrotation
					End Site
					{
						OFFSET 0.000000 10.528564 0.000000
					}
				}
				JOINT Right_Breast
				{
					OFFSET -4.947600 3.120102 3.185900
					CHANNELS 3 Xrotation Yrotation Zrotation
					End Site
					{
						OFFSET 0.000000 10.528564 0.000000
					}
				}
				JOINT Whistle
				{
					OFFSET 0.368200 11.471298 0.095400
					CHANNELS 3 Xrotation Yrotation Zrotation
					JOINT Whistle1
					{
						OFFSET -0.002000 -6.349899 7.479800
						CHANNELS 3 Xrotation Yrotation Zrotation
						JOINT Whistle2
						{
							OFFSET -0.001300 -8.217598 4.717600
							CHANNELS 3 Xrotation Yrotation Zrotation
							End Site
							{
								OFFSET 0.000000 9.475479 0.000000
							}
						}
					}
				}
			}
		}
		JOINT Belly
		{
			OFFSET 0.212400 1.593002 3.163700
			CHANNELS 3 Xrotation Yrotation Zrotation
			End Site
			{
				OFFSET 0.000000 7.496635 0.000000
			}
		}
	}
	JOINT FitGrandmaFacialAnim_Joint
	{
		OFFSET 1.150000 -86.211197 -1.220100
		CHANNELS 3 Xrotation Yrotation Zrotation
		End Site
		{
			OFFSET 0.000000 31.666618 0.000000
		}
	}
}
MOTION
Frames: 4
Frame Time: 0.016667
-6.012766 116.673767 -8.344534 9.972192 -10.874929 -1.850486 0.000000 0.000000 -0.000000 -131.530141 -18.168879 32.331848 126.134319 -11.746935 -2.925786 20.123739 -25.679667 8.248673 0.000001 -0.000001 -0.000000 -0.000000 -0.000001 0.000001 0.000004 -0.000000 0.000001 -91.298763 29.376480 -52.047138 137.403981 16.794701 0.793465 -7.107525 14.698359 37.547455 -0.000002 0.000003 -0.000001 -0.000003 0.000001 -0.000000 0.000004 -0.000000 -0.000001 33.122309 6.228253 2.968494 7.016417 1.371148 0.932975 7.016135 1.356910 0.957106 7.978326 3.451510 1.914783 -5.460693 28.728121 -21.647094 -0.000001 0.000002 0.000000 -0.000001 0.000002 0.000000 -0.000001 0.000002 0.000000 -0.000001 0.000002 0.000000 -0.000001 0.000002 0.000000 -0.000001 0.000002 0.000000 -0.000001 0.000002 0.000000 -0.000001 0.000002 0.000000 -0.000001 0.000002 0.000000 -0.000001 0.000002 0.000000 -0.000001 0.000002 0.000000 -0.000001 0.000002 0.000000 -0.000001 0.000002 0.000000 -0.000001 0.000002 0.000000 -0.000001 0.000002 0.000000 -0.000001 0.000002 0.000000 -0.000001 0.000002 0.000000 -0.000001 0.000002 0.000000 -0.000001 0.000002 0.000000 0.333792 -3.623989 3.511472 -39.710973 20.403438 24.454229 -0.000001 -1.659874 0.000014 5.337912 -17.498072 -30.910458 -1.512194 3.683032 6.110828 3.939038 7.948700 0.746765 -0.000001 -0.000000 0.000000 0.033134 0.675972 -5.610572 0.032961 0.674427 -5.597748 0.000000 -0.000001 0.000002 0.069849 0.980277 -8.151099 0.078708 1.040169 -8.653173 -0.000001 -0.000001 -0.000000 0.141444 1.391204 -11.609536 0.158270 1.470751 -12.283646 0.000003 0.000001 0.000000 1.260511 5.698237 -14.444259 0.229454 -2.281939 -15.368559 0.000003 0.000000 0.000000 0.000002 0.000000 -0.000000 -3.152581 -6.176007 -32.353534 -43.155317 11.870935 -9.722804 0.000001 13.107161 0.000005 11.026639 -9.558984 61.789948 -1.849257 -3.581790 -6.586139 4.637194 -8.634139 -0.225409 0.000003 -0.000001 -0.000001 0.097302 -1.161575 9.577315 0.097304 -1.161583 9.577313 0.000002 -0.000001 0.000005 0.734456 -4.504870 10.622727 0.142211 -1.401922 11.584727 -0.000001 0.000003 0.000001 1.799550 -8.681489 12.425402 0.204371 -1.676594 13.897330 0.000001 -0.000005 -0.000002 3.082005 -12.378820 14.479198 0.252507 -1.860357 15.457603 -0.000003 0.000000 0.000002 -0.000003 -0.000004 0.000000 -0.000003 -0.000000 0.000000 -0.000003 -0.000000 0.000000 -0.000003 -0.000000 0.000000 -0.000003 -0.000000 0.000000 -0.000003 -0.000000 0.000000 -0.000003 -0.000000 0.000000 0.000001 -0.000000 0.000000 0.000001 -0.000000 0.000000 -0.000002 0.000000 -0.000000 0.000000 0.000000 -0.000000 
-5.975702 116.060127 -8.076733 10.359721 -10.467235 -1.177287 -0.000000 -0.000001 0.000000 -130.443663 -15.967215 33.194173 125.820117 -11.176125 -4.367561 20.392045 -27.591683 11.101241 0.000002 -0.000001 0.000000 -0.000000 -0.000000 0.000000 -0.000001 -0.000000 0.000000 -88.503836 27.996672 -52.557974 135.771347 16.672833 1.567209 -8.598582 13.902332 37.018877 0.000001 -0.000002 0.000003 0.000002 -0.000002 0.000002 0.000005 -0.000000 -0.000001 32.745914 5.924188 2.320659 6.928090 1.411406 0.809338 6.927395 1.400736 0.834280 8.137135 3.359822 2.019691 -4.939796 28.238411 -21.457492 -0.000000 0.000001 0.000001 -0.000000 0.000001 0.000001 -0.000000 0.000001 0.000001 -0.000000 0.000001 0.000001 -0.000000 0.000001 0.000001 -0.000000 0.000001 0.000001 -0.000000 0.000001 0.000001 -0.000000 0.000001 0.000001 -0.000000 0.000001 0.000001 -0.000000 0.000001 0.000001 -0.000000 0.000001 0.000001 -0.000000 0.000001 0.000001 -0.000000 0.000001 0.000001 -0.000000 0.000001 0.000001 -0.000000 0.000001 0.000001 -0.000000 0.000001 0.000001 -0.000000 0.000001 0.000001 -0.000000 0.000001 0.000001 -0.000000 0.000001 0.000001 0.260223 -3.373977 3.577370 -40.196066 20.677966 26.508060 0.000000 -2.492644 -0.000008 7.106744 -15.300571 -31.430601 -1.511018 3.682991 6.108664 3.939047 7.948699 0.746765 -0.000001 -0.000000 -0.000001 0.033131 0.675972 -5.610574 0.032962 0.674427 -5.597746 -0.000002 -0.000000 -0.000003 0.069852 0.980277 -8.151103 0.078703 1.040173 -8.653174 -0.000002 -0.000001 -0.000004 0.141439 1.391202 -11.609534 0.158269 1.470749 -12.283644 -0.000003 0.000000 0.000000 1.260510 5.698236 -14.444254 0.229457 -2.281938 -15.368564 -0.000003 -0.000002 0.000001 -0.000001 0.000001 0.000004 -2.438237 -4.287079 -32.305562 -40.704058 7.760216 -13.687629 0.000004 15.033132 -0.000013 9.217857 -10.057904 64.473502 -1.849255 -3.581792 -6.586141 4.637200 -8.634141 -0.225410 -0.000003 -0.000000 0.000000 0.097304 -1.161575 9.577319 0.097307 -1.161584 9.577311 -0.000000 -0.000001 0.000001 0.734462 -4.504874 10.622727 0.142214 -1.401921 11.584724 0.000000 0.000002 0.000001 1.799551 -8.681485 12.425400 0.204368 -1.676595 13.897330 0.000000 -0.000001 0.000003 3.082008 -12.378821 14.479198 0.252512 -1.860356 15.457606 0.000001 0.000001 0.000000 -0.000001 0.000001 0.000003 0.000002 -0.000000 -0.000000 0.000002 -0.000000 -0.000000 0.000002 -0.000000 -0.000000 0.000002 -0.000000 -0.000000 0.000002 -0.000000 -0.000000 0.000002 -0.000000 -0.000000 0.000005 -0.000000 -0.000000 0.000005 -0.000000 -0.000000 -0.000001 0.000000 -0.000000 -0.000000 -0.000001 0.000000 
-5.921179 115.093384 -7.794655 10.321439 -10.557560 -0.913495 -0.000000 -0.000001 -0.000000 -128.504586 -14.094452 33.394284 125.256271 -10.789031 -5.263585 20.448118 -26.935187 13.272895 0.000001 -0.000000 -0.000001 0.000000 -0.000000 -0.000000 -0.000002 0.000001 -0.000001 -86.107894 25.991102 -51.558697 134.079974 16.414826 2.035894 -10.875913 12.911610 36.541205 0.000000 -0.000000 0.000002 0.000003 -0.000006 0.000005 -0.000002 -0.000001 0.000000 32.004877 5.891340 1.784436 6.762697 1.484584 0.721722 6.761558 1.477280 0.747490 8.034101 3.323868 2.004732 -4.484722 27.881879 -21.407116 0.000000 -0.000001 -0.000000 0.000000 -0.000001 -0.000000 0.000000 -0.000001 -0.000000 0.000000 -0.000001 -0.000000 0.000000 -0.000001 -0.000000 0.000000 -0.000001 -0.000000 0.000000 -0.000001 -0.000000 0.000000 -0.000001 -0.000000 0.000000 -0.000001 -0.000000 0.000000 -0.000001 -0.000000 0.000000 -0.000001 -0.000000 0.000000 -0.000001 -0.000000 0.000000 -0.000001 -0.000000 0.000000 -0.000001 -0.000000 0.000000 -0.000001 -0.000000 0.000000 -0.000001 -0.000000 0.000000 -0.000001 -0.000000 0.000000 -0.000001 -0.000000 0.000000 -0.000001 -0.000000 0.150304 -2.880987 3.833598 -39.803361 20.644054 27.958478 0.000000 -3.001041 0.000006 7.784222 -14.020439 -32.303414 -1.509860 3.682952 6.106606 3.939040 7.948700 0.746765 -0.000004 0.000001 -0.000001 0.033128 0.675971 -5.610573 0.032958 0.674426 -5.597743 -0.000001 -0.000000 -0.000001 0.069851 0.980276 -8.151100 0.078703 1.040171 -8.653173 -0.000006 -0.000001 0.000000 0.141439 1.391204 -11.609536 0.158269 1.470748 -12.283640 0.000000 0.000000 -0.000001 1.260504 5.698233 -14.444257 0.229450 -2.281938 -15.368559 0.000004 -0.000002 -0.000001 0.000002 0.000000 -0.000001 -1.787092 -2.323002 -32.141975 -38.691509 3.637156 -16.996658 -0.000001 17.122617 0.000007 6.431846 -10.848091 65.605265 -1.849257 -3.581789 -6.586137 4.637192 -8.634137 -0.225413 -0.000001 0.000001 -0.000001 0.097307 -1.161571 9.577323 0.097304 -1.161584 9.577311 -0.000000 -0.000001 -0.000006 0.734457 -4.504869 10.622731 0.142214 -1.401923 11.584715 0.000001 0.000000 -0.000002 1.799550 -8.681485 12.425405 0.204367 -1.676592 13.897331 0.000002 -0.000001 0.000001 3.082007 -12.378815 14.479202 0.252506 -1.860354 15.457603 0.000004 -0.000000 0.000001 0.000003 -0.000001 0.000002 -0.000000 0.000000 -0.000000 -0.000000 0.000000 -0.000000 -0.000000 0.000000 -0.000000 -0.000000 0.000000 -0.000000 -0.000000 0.000000 -0.000000 -0.000001 0.000000 -0.000000 0.000001 0.000000 -0.000000 0.000001 0.000000 -0.000000 -0.000003 -0.000000 0.000000 -0.000000 -0.000001 -0.000000 
-5.878789 113.798355 -7.550384 10.016625 -10.832232 -0.851779 0.000001 0.000000 -0.000000 -125.994423 -12.435883 33.205552 124.576408 -10.521862 -5.703652 19.770495 -25.314974 14.310294 -0.000001 -0.000000 0.000000 0.000000 -0.000000 -0.000000 -0.000003 0.000000 0.000002 -83.733147 23.724271 -49.628810 132.466369 16.068368 2.224583 -13.715863 11.524171 36.061777 0.000001 0.000003 -0.000001 -0.000003 -0.000002 -0.000000 0.000002 0.000002 0.000001 30.986318 6.024955 1.350181 6.538969 1.568814 0.665330 6.537222 1.564634 0.691662 7.826003 3.324093 1.952253 -4.157730 27.663955 -21.379889 -0.000002 -0.000001 -0.000000 -0.000002 -0.000001 -0.000000 -0.000002 -0.000001 -0.000000 -0.000002 -0.000001 -0.000000 -0.000002 -0.000001 -0.000000 -0.000002 -0.000001 -0.000000 -0.000002 -0.000001 -0.000000 -0.000002 -0.000001 -0.000000 -0.000002 -0.000001 -0.000000 -0.000002 -0.000001 -0.000000 -0.000002 -0.000001 -0.000000 -0.000002 -0.000001 -0.000000 -0.000002 -0.000001 -0.000000 -0.000002 -0.000001 -0.000000 -0.000002 -0.000001 -0.000000 -0.000002 -0.000001 -0.000000 -0.000002 -0.000001 -0.000000 -0.000002 -0.000001 -0.000000 -0.000002 -0.000001 -0.000000 0.039214 -2.385779 4.168920 -38.968340 20.585633 29.044399 0.000001 -3.374197 -0.000015 8.050752 -13.187932 -33.345909 -1.508787 3.682913 6.104659 3.939042 7.948703 0.746765 -0.000001 0.000002 -0.000002 0.033127 0.675971 -5.610570 0.032961 0.674426 -5.597746 -0.000002 0.000000 -0.000001 0.069849 0.980277 -8.151101 0.078701 1.040172 -8.653175 0.000001 -0.000000 0.000000 0.141436 1.391203 -11.609536 0.158271 1.470750 -12.283645 -0.000001 0.000001 -0.000001 1.260506 5.698236 -14.444257 0.229451 -2.281940 -15.368561 -0.000000 0.000000 -0.000001 0.000001 -0.000001 -0.000003 -1.195181 -0.396597 -31.763337 -37.135131 -0.211832 -19.628946 0.000003 19.145497 -0.000009 4.004379 -11.617229 66.067218 -1.849256 -3.581788 -6.586141 4.637191 -8.634137 -0.225411 -0.000002 0.000001 0.000000 0.097305 -1.161574 9.577315 0.097308 -1.161585 9.577309 -0.000003 0.000001 -0.000000 0.734457 -4.504869 10.622728 0.142211 -1.401922 11.584721 0.000002 -0.000002 -0.000006 1.799544 -8.681483 12.425402 0.204368 -1.676594 13.897328 0.000001 -0.000004 0.000002 3.082008 -12.378821 14.479198 0.252505 -1.860350 15.457604 0.000001 0.000002 -0.000001 -0.000001 0.000001 -0.000001 0.000003 -0.000000 0.000000 0.000003 -0.000000 0.000000 0.000003 -0.000000 0.000000 0.000003 -0.000000 0.000000 0.000003 -0.000000 0.000000 0.000003 -0.000000 0.000000 0.000005 -0.000000 0.000000 0.000005 -0.000000 0.000000 0.000001 0.000000 0.000001 0.000001 0.000000 -0.000000 
